<?xml version="1.0" standalone="no"?>
<!DOCTYPE svg PUBLIC "-//W3C//DTD SVG 20010904//EN"
 "http://www.w3.org/TR/2001/REC-SVG-20010904/DTD/svg10.dtd">
<svg version="1.0" xmlns="http://www.w3.org/2000/svg" width="531.000000pt" height="531.000000pt" viewBox="0 0 531.000000 531.000000" preserveAspectRatio="xMidYMid meet">
<metadata>
Created by potrace 1.14, written by Peter Selinger 2001-2017
</metadata>
<g transform="translate(0.000000,531.000000) scale(0.100000,-0.100000)" fill="#000000" stroke="none">
<path d="M1086 4833 c-30 -11 -67 -34 -97 -64 -27 -26 -62 -50 -78 -54 -95
-21 -107 -167 -30 -400 29 -86 61 -164 86 -210 13 -22 28 -51 35 -65 7 -14 15
-27 18 -30 4 -3 12 -21 20 -40 7 -19 22 -44 32 -56 10 -11 18 -27 18 -35 0
-12 -81 -74 -115 -88 -8 -3 -100 -77 -225 -179 -27 -22 -36 -23 -226 -25
l-199 -2 -1 -190 c0 -106 4 -196 9 -202 5 -7 20 -13 33 -13 34 0 36 -13 10
-61 -14 -24 -32 -66 -41 -94 -9 -27 -20 -59 -25 -70 -14 -30 -40 -141 -45
-189 -3 -24 -20 -77 -40 -118 -19 -41 -42 -111 -51 -154 -22 -103 -22 -290 0
-414 17 -97 52 -217 67 -234 5 -6 9 -17 9 -25 0 -23 111 -239 161 -312 133
-198 281 -356 471 -502 45 -36 99 -74 118 -86 207 -123 324 -173 545 -230 38
-9 186 -25 230 -24 54 1 177 13 184 17 4 3 25 -3 47 -13 131 -63 311 -111 481
-130 81 -8 296 -6 361 4 78 12 99 16 152 27 60 12 237 71 284 95 23 12 46 13
105 7 286 -28 558 40 856 214 173 100 361 262 499 428 84 101 83 99 148 198
186 283 278 609 248 874 -14 120 -32 187 -75 277 -19 39 -40 102 -48 140 -24
113 -55 206 -100 296 l-42 85 58 -3 c32 -1 64 0 71 3 9 4 12 54 12 202 l-1
197 -95 1 c-52 1 -149 3 -215 5 -66 2 -125 0 -131 -4 -6 -3 -36 17 -65 46 -30
29 -72 67 -94 85 -44 35 -256 172 -267 172 -15 0 -8 23 21 70 16 27 27 51 24
54 -4 3 -1 6 5 6 7 0 12 7 12 15 0 8 4 15 8 15 20 0 115 220 148 345 24 90 26
105 27 170 2 77 -17 115 -68 140 -22 11 -53 33 -68 48 -36 37 -120 75 -177 81
-139 13 -323 -75 -445 -213 -16 -19 -35 -39 -40 -45 -17 -18 -104 -152 -115
-177 -6 -13 -35 -64 -65 -114 -39 -65 -58 -89 -72 -88 -17 2 -212 32 -241 37
-23 4 -31 21 -48 111 -9 50 -21 94 -25 99 -5 5 -25 -2 -48 -17 -22 -15 -44
-27 -47 -27 -4 0 -34 -17 -68 -38 -105 -66 -101 -65 -133 -36 -47 43 -263 246
-322 301 -37 34 -58 48 -62 40 -4 -7 -10 -52 -14 -102 -4 -49 -9 -106 -10
-125 -2 -19 -7 -70 -11 -112 l-7 -77 -36 -5 c-20 -3 -56 -8 -81 -11 -25 -3
-52 -8 -60 -10 -8 -2 -37 -6 -64 -10 -28 -3 -81 -13 -119 -21 -37 -7 -74 -14
-81 -14 -6 0 -24 24 -39 53 -15 28 -39 72 -54 97 -14 25 -35 61 -47 82 -12 20
-36 62 -55 95 -145 251 -394 389 -585 326z"></path>
</g>
</svg>
