<svg version="1.0" xmlns="http://www.w3.org/2000/svg" width="708" height="708" viewBox="0 0 531 531"><path d="M108.6 47.7c-3 1.1-6.7 3.4-9.7 6.4-2.7 2.6-6.2 5-7.8 5.4-9.5 2.1-10.7 16.7-3 40 2.9 8.6 6.1 16.4 8.6 21 1.3 2.2 2.8 5.1 3.5 6.5.7 1.4 1.5 2.7 1.8 3 .4.3 1.2 2.1 2 4 .7 1.9 2.2 4.4 3.2 5.6 1 1.1 1.8 2.7 1.8 3.5 0 1.2-8.1 7.4-11.5 8.8-.8.3-10 7.7-22.5 17.9-2.7 2.2-3.6 2.3-22.6 2.5l-19.9.2-.1 19c0 10.6.4 19.6.9 20.2.5.7 2 1.3 3.3 1.3 3.4 0 3.6 1.3 1 6.1-1.4 2.4-3.2 6.6-4.1 9.4-.9 2.7-2 5.9-2.5 7-1.4 3-4 14.1-4.5 18.9-.3 2.4-2 7.7-4 11.8-1.9 4.1-4.2 11.1-5.1 15.4-2.2 10.3-2.2 29 0 41.4 1.7 9.7 5.2 21.7 6.7 23.4.5.6.9 1.7.9 2.5 0 2.3 11.1 23.9 16.1 31.2 13.3 19.8 28.1 35.6 47.1 50.2 4.5 3.6 9.9 7.4 11.8 8.6 20.7 12.3 32.4 17.3 54.5 23 3.8.9 18.6 2.5 23 2.4 5.4-.1 17.7-1.3 18.4-1.7.4-.3 2.5.3 4.7 1.3 13.1 6.3 31.1 11.1 48.1 13 8.1.8 29.6.6 36.1-.4 7.8-1.2 9.9-1.6 15.2-2.7 6-1.2 23.7-7.1 28.4-9.5 2.3-1.2 4.6-1.3 10.5-.7 28.6 2.8 55.8-4 85.6-21.4 17.3-10 36.1-26.2 49.9-42.8 8.4-10.1 8.3-9.9 14.8-19.8 18.6-28.3 27.8-60.9 24.8-87.4-1.4-12-3.2-18.7-7.5-27.7-1.9-3.9-4-10.2-4.8-14-2.4-11.3-5.5-20.6-10-29.6l-4.2-8.5 5.8.3c3.2.1 6.4 0 7.1-.3.9-.4 1.2-5.4 1.2-20.2l-.1-19.7-9.5-.1c-5.2-.1-14.9-.3-21.5-.5s-12.5 0-13.1.4c-.6.3-3.6-1.7-6.5-4.6-3-2.9-7.2-6.7-9.4-8.5-4.4-3.5-25.6-17.2-26.7-17.2-1.5 0-.8-2.3 2.1-7 1.6-2.7 2.7-5.1 2.4-5.4-.4-.3-.1-.6.5-.6.7 0 1.2-.7 1.2-1.5s.4-1.5.8-1.5c2 0 11.5-22 14.8-34.5 2.4-9 2.6-10.5 2.7-17 .2-7.7-1.7-11.5-6.8-14-2.2-1.1-5.3-3.3-6.8-4.8-3.6-3.7-12-7.5-17.7-8.1-13.9-1.3-32.3 7.5-44.5 21.3-1.6 1.9-3.5 3.9-4 4.5-1.7 1.8-10.4 15.2-11.5 17.7-.6 1.3-3.5 6.4-6.5 11.4-3.9 6.5-5.8 8.9-7.2 8.8-1.7-.2-21.2-3.2-24.1-3.7-2.3-.4-3.1-2.1-4.8-11.1-.9-5-2.1-9.4-2.5-9.9-.5-.5-2.5.2-4.8 1.7-2.2 1.5-4.4 2.7-4.7 2.7-.4 0-3.4 1.7-6.8 3.8-10.5 6.6-10.1 6.5-13.3 3.6-4.7-4.3-26.3-24.6-32.2-30.1-3.7-3.4-5.8-4.8-6.2-4-.4.7-1 5.2-1.4 10.2-.4 4.9-.9 10.6-1 12.5-.2 1.9-.7 7-1.1 11.2l-.7 7.7-3.6.5c-2 .3-5.6.8-8.1 1.1-2.5.3-5.2.8-6 1-.8.2-3.7.6-6.4 1-2.8.3-8.1 1.3-11.9 2.1-3.7.7-7.4 1.4-8.1 1.4-.6 0-2.4-2.4-3.9-5.3-1.5-2.8-3.9-7.2-5.4-9.7-1.4-2.5-3.5-6.1-4.7-8.2-1.2-2-3.6-6.2-5.5-9.5-14.5-25.1-39.4-38.9-58.5-32.6z"/></svg>